<svg width="18" height="15" xmlns="http://www.w3.org/2000/svg">
 <g>
  <title>background</title>
  <rect fill="none" id="canvas_background" height="17" width="20" y="-1" x="-1"/>
 </g>
 <g>
  <title>Layer 1</title>
  <path stroke="null" id="svg_1" d="m1.176221,0.541402l15.660297,0c0.540554,0 0.978769,0.44772 0.978769,1c0,0.55228 -0.438214,1 -0.978769,1l-15.660297,0c-0.540554,0 -0.978769,-0.44772 -0.978769,-1c0,-0.55228 0.438214,-1 0.978769,-1zm0,12l15.660297,0c0.540554,0 0.978769,0.44772 0.978769,1c0,0.55228 -0.438214,1 -0.978769,1l-15.660297,0c-0.540554,0 -0.978769,-0.44772 -0.978769,-1c0,-0.55228 0.438214,-1 0.978769,-1zm0,-6l15.660297,0c0.540554,0 0.978769,0.44772 0.978769,1c0,0.55228 -0.438214,1 -0.978769,1l-15.660297,0c-0.540554,0 -0.978769,-0.44772 -0.978769,-1c0,-0.55228 0.438214,-1 0.978769,-1z" fill-rule="evenodd"/>
 </g>
</svg>